# File created by Blade
# Date/Time:  Mon Nov 18 17:26:10 2013
# Frame Rate: 100.000 fps
#------------------------------------------------------
:FULLY-SPECIFIED
:DEGREES
29
root -35.700401 -1.547810 40.529813 7.307435 -2.010842 24.793147
Spine 19.226642 -1.239705 -0.705148
Spine1 6.711617 0.281900 -1.053547
Spine2 -22.903508 2.157269 0.441531
NeckDummy 0.069690 0.450568 1.016052 13.034898 -0.728476 0.171229
Neck 2.953284 -8.005656 47.253412
Head 0.170483 -0.098773 0.026476 -1.686226 0.867961 0.497809
LeftShoulderDummy 0.044531 0.462526 1.030741 13.032890 -0.812384 0.301266
LeftShoulder 6.554693 -5.088254 17.316685
LeftArm 12.001065 36.876363 23.320320
LeftForeArm 58.851809
LeftForeArmRoll 14.054483
LeftHand -33.669919 -23.385756 8.126784
LeftHandThumb1 16.034595 3.826867
LeftHandIndex1 -2.462076 44.759758
LeftHandPinky1 -0.203466 65.582868
RightShoulderDummy 0.059747 0.456748 0.990131 13.016948 0.762492 -0.170014
RightShoulder 10.622605 0.041099 13.645184
RightArm -10.418103 55.840382 18.695790
RightForeArm 102.657103
RightForeArmRoll 23.849641
RightHand -44.369547 -22.156006 11.570927
RightHandThumb1 10.847473 6.956439
RightHandIndex1 3.989236 41.621407
RightHandPinky1 10.855858 69.181841
LeftUpLeg -5.776342 5.908964 -25.445439
LeftLeg 48.497313
LeftFoot -0.226999 -0.809638 -1.709442 -10.839625 19.316221 -25.467758
LeftToeBase -2.720134
RightUpLeg -2.547594 10.214723 -43.985039
RightLeg 47.409457
RightFoot -0.057898 0.842306 0.404611 -5.934304 17.336735 -18.599008
RightToeBase -8.653730
30
root -35.882739 -1.582131 40.444760 7.435957 -2.191081 25.480986
Spine 19.241883 -1.040594 -0.790374
Spine1 6.731492 0.335342 -1.224557
Spine2 -22.861189 2.217971 0.239906
NeckDummy 0.071595 0.450366 1.010901 13.059360 -0.560417 -0.107529
Neck 2.809152 -7.840123 46.683013
Head 0.157705 -0.098750 0.020461 -1.626829 0.692956 0.472153
LeftShoulderDummy 0.042516 0.456944 1.022731 13.059986 -0.656410 0.056141
LeftShoulder 6.080310 -4.603871 16.830178
LeftArm 12.428472 36.746593 24.146886
LeftForeArm 59.051427
LeftForeArmRoll 13.861854
LeftHand -33.706492 -23.334064 7.617386
LeftHandThumb1 15.746407 4.198114
LeftHandIndex1 -1.909984 44.894380
LeftHandPinky1 0.106922 65.625040
RightShoulderDummy 0.062304 0.461624 0.988190 13.042652 0.591944 0.108374
RightShoulder 10.752680 -0.462798 13.732852
RightArm -11.138075 55.599506 19.182248
RightForeArm 102.415718
RightForeArmRoll 23.831481
RightHand -44.287970 -22.698244 11.663744
RightHandThumb1 10.830232 6.727504
RightHandIndex1 4.374870 42.090804
RightHandPinky1 11.561889 70.796879
LeftUpLeg -6.296593 6.132938 -26.504289
LeftLeg 49.293060
LeftFoot -0.196226 -0.851687 -1.722506 -10.883827 18.971843 -25.237377
LeftToeBase -2.666644
RightUpLeg -1.102733 11.027678 -44.460739
RightLeg 48.569681
RightFoot -0.025152 0.845526 0.376588 -4.767023 18.258393 -18.664884
RightToeBase -8.443986
31
root -36.053416 -1.611481 40.375761 7.543889 -2.399354 26.022159
Spine 19.217939 -0.773752 -0.809155
Spine1 6.753138 0.365227 -1.220974
Spine2 -22.804631 2.248996 -0.032622
NeckDummy 0.074249 0.448808 1.001530 13.148332 -0.327075 -0.549439
Neck 2.487623 -7.656961 46.149814
Head 0.154327 -0.106056 0.009982 -1.446555 0.695084 0.440260
LeftShoulderDummy 0.042558 0.446394 1.009663 13.151366 -0.430541 -0.386836
LeftShoulder 5.470933 -3.844800 16.393272
LeftArm 12.886194 36.843815 25.049856
LeftForeArm 59.291630
LeftForeArmRoll 13.365449
LeftHand -33.587740 -23.170939 7.306263
LeftHandThumb1 15.607356 4.330600
LeftHandIndex1 -1.864507 45.012042
LeftHandPinky1 0.456756 65.860706
RightShoulderDummy 0.065908 0.468703 0.982924 13.131562 0.356728 0.557119
RightShoulder 11.060080 -1.049705 13.695768
RightArm -11.595982 55.462957 19.840657
RightForeArm 102.176724
RightForeArmRoll 23.916360
RightHand -44.457141 -23.490375 11.504286
RightHandThumb1 10.978441 7.054792
RightHandIndex1 4.179930 42.375841
RightHandPinky1 11.907586 71.473300
LeftUpLeg -6.542487 6.507990 -27.333825
LeftLeg 49.863756
LeftFoot -0.158589 -0.880729 -1.736700 -11.047756 18.401552 -25.084576
LeftToeBase -2.549939
RightUpLeg -0.171926 11.719431 -44.803804
RightLeg 49.647587
RightFoot 0.009865 0.834200 0.354820 -3.471851 17.623146 -18.244315
RightToeBase -8.404732
32
root -36.218647 -1.636803 40.327492 7.587159 -2.623023 26.365726
Spine 19.172921 -0.556128 -0.750662
Spine1 6.769929 0.404090 -1.028661
Spine2 -22.788988 2.261332 -0.224068
NeckDummy 0.074858 0.444583 0.994434 13.234789 -0.173332 -0.793615
Neck 2.411153 -7.502866 45.462682
Head 0.149540 -0.111002 -0.004083 -1.245658 0.664503 0.400924
LeftShoulderDummy 0.039470 0.437131 1.000083 13.240896 -0.287862 -0.613859
LeftShoulder 4.874390 -3.269615 15.854012
LeftArm 13.036543 37.014853 25.777785
LeftForeArm 59.563884
LeftForeArmRoll 12.942775
LeftHand -33.529516 -23.007254 7.277328
LeftHandThumb1 15.560413 3.973775
LeftHandIndex1 -2.017853 45.243102
LeftHandPinky1 0.486425 66.466662
RightShoulderDummy 0.067699 0.468918 0.977959 13.218361 0.202195 0.803192
RightShoulder 11.525422 -1.190448 13.535136
RightArm -11.845691 55.571010 20.521081
RightForeArm 101.855079
RightForeArmRoll 24.073528
RightHand -44.563044 -24.038177 11.422495
RightHandThumb1 10.769299 6.991025
RightHandIndex1 4.104277 42.573188
RightHandPinky1 12.241739 72.239446
LeftUpLeg -6.527486 7.048131 -27.872746
LeftLeg 50.167575
LeftFoot -0.128374 -0.894078 -1.749371 -11.291083 17.773121 -24.981769
LeftToeBase -2.411197
RightUpLeg 0.249217 12.254545 -44.997545
RightLeg 50.675608
RightFoot 0.014139 0.835667 0.380967 -3.494845 16.227306 -17.437438
RightToeBase -8.712483
